<?xml version="1.0" encoding="utf-8"?>
<!-- Generator: Adobe Illustrator 28.2.0, SVG Export Plug-In . SVG Version: 6.00 Build 0)  -->
<svg version="1.1" id="a" xmlns="http://www.w3.org/2000/svg" xmlns:xlink="http://www.w3.org/1999/xlink" x="0px" y="0px"
	 width="112px" height="50px" viewBox="0 0 112 50" enable-background="new 0 0 112 50" xml:space="preserve">
<g>
	<path d="M57.71,32.03v6.5c0,0.83,0.65,1.5,1.42,1.5h33.43c0.77,0,1.42-0.67,1.42-1.5v-6.5c0-0.83-0.65-1.54-1.42-1.54H59.13
		C58.36,30.49,57.71,31.2,57.71,32.03z"/>
	<g>
		<path fill="#FFFFFF" d="M61.21,36.78c0.15-0.19,0.34-0.38,0.54-0.58c0.66-0.68,1.42-1.46,1.42-2.49c0-1.2-0.65-1.85-1.83-1.85
			c-1.15,0-1.79,0.66-1.91,1.97l-0.01,0.11l1.15,0.11l0.01-0.11c0.09-0.88,0.45-0.98,0.71-0.98c0.41,0,0.62,0.27,0.62,0.79
			c0,0.7-0.54,1.25-1.11,1.83c-0.18,0.18-0.37,0.38-0.55,0.58c-0.41,0.47-0.88,1.11-0.88,1.83v0.61h3.8v-1.13h-2.4
			C60.83,37.28,60.97,37.05,61.21,36.78z"/>
		<path fill="#FFFFFF" d="M65.98,34.04c-0.34,0-0.63,0.08-0.9,0.26l0.1-1.23h2.19v-1.14h-3.15l-0.26,3.61l1.03,0.13l0.04-0.07
			c0.16-0.34,0.37-0.49,0.68-0.49c0.33,0,0.77,0.12,0.77,1.18c0,0.59-0.14,1.3-0.8,1.3c-0.3,0-0.6-0.1-0.78-0.8l-0.03-0.11
			l-1.12,0.31l0.03,0.11c0.27,1.1,0.87,1.59,1.92,1.59c1.28,0,2.04-0.9,2.04-2.4C67.74,34.85,67.1,34.04,65.98,34.04z"/>
		<polygon fill="#FFFFFF" points="72.05,34.37 71.14,31.93 69.76,31.93 71.41,35.91 71.41,38.6 72.7,38.6 72.7,35.91 74.38,31.93 
			73.01,31.93 		"/>
		<polygon fill="#FFFFFF" points="76.08,35.74 77.74,35.74 77.74,34.58 76.08,34.58 76.08,33.12 78.3,33.12 78.3,31.93 74.78,31.93 
			74.78,38.6 78.42,38.6 78.42,37.4 76.08,37.4 		"/>
		<path fill="#FFFFFF" d="M81.97,31.93h-1.61l-1.51,6.67h1.31l0.33-1.65h1.36l0.34,1.65h1.33l-1.53-6.58L81.97,31.93z M81.62,35.78
			h-0.89l0.44-2.19L81.62,35.78z"/>
		<path fill="#FFFFFF" d="M87.93,33.83c0-1.3-0.69-1.9-2.16-1.9h-1.82v6.67h1.29v-2.66h0.62l0.9,2.58l0.03,0.08h1.4l-1.14-3.14
			C87.63,35.15,87.93,34.59,87.93,33.83z M85.25,33.08h0.49c0.5,0,0.88,0.06,0.88,0.85c0,0.6-0.28,0.88-0.87,0.88h-0.5V33.08z"/>
		<path fill="#FFFFFF" d="M90.71,34.66c-0.56-0.32-1.04-0.6-1.04-1.13c0-0.35,0.22-0.55,0.61-0.55c0.4,0,0.62,0.23,0.76,0.8
			l0.03,0.1l1.14-0.22l-0.02-0.11c-0.21-1.14-0.84-1.7-1.91-1.7c-1.13,0-1.84,0.67-1.84,1.74c0,1.19,0.82,1.68,1.54,2.1
			c0.57,0.34,1.07,0.63,1.07,1.21c0,0.42-0.26,0.66-0.7,0.66c-0.48,0-0.71-0.24-0.83-0.9l-0.02-0.11l-1.21,0.21l0.02,0.11
			c0.22,1.25,0.84,1.81,2.01,1.81c1.23,0,2-0.71,2-1.86C92.31,35.58,91.46,35.09,90.71,34.66z"/>
	</g>
	<path d="M107.98,0.07c-1.69-0.36-3.13,0.65-4.13,1.91c-1.16,1.46-1.93,3.23-2.55,4.97c-0.83,2.3-1.41,4.7-1.86,7.11
		c-0.47,2.47-0.75,4.98-0.84,7.49c-0.04,1.24-0.04,2.49,0.03,3.73c0.04,0.61,0.09,1.23,0.18,1.83c0.04,0.29,0.09,0.58,0.15,0.87
		c0.03,0.14,0.06,0.29,0.09,0.43c0.03,0.03,0.17-0.01,0.2-0.02c1.07-0.23,2.24-0.28,3.34-0.21c1.18,0.08,2.27,0.44,3.29,1.02
		c0.25,0.14,0.49,0.29,0.73,0.45c0.12,0.08,0.24,0.17,0.36,0.26c0.11,0.08,0.19,0.18,0.31,0.24c0.31-0.49,0.59-1,0.84-1.53
		c0.51-1.05,0.91-2.14,1.28-3.25c0.78-2.33,1.38-4.71,1.8-7.13c0.43-2.46,0.7-4.95,0.78-7.44c0.07-2.12,0-4.28-0.5-6.35
		C111.02,2.6,110.06,0.52,107.98,0.07z M102.46,18.73l7.65-6.89c0.01,1.4-0.03,2.81-0.19,4.2c-0.16,1.4-0.41,2.8-0.7,4.18
		c-1.87-0.41-3.73-0.83-5.59-1.24C103.24,18.91,102.85,18.82,102.46,18.73z M103.66,6.88c0.55-0.95,1.1-1.89,1.89-2.65
		c0.61-0.59,1.57-1.22,2.38-0.62c0.7,0.52,1.08,1.47,1.35,2.26c0.36,1.05,0.57,2.21,0.67,3.31c-2.22-0.53-4.46-1.02-6.68-1.53
		C103.4,7.39,103.53,7.13,103.66,6.88z M100.58,16.78c0.25-1.19,0.43-2.39,0.72-3.57c0.14-0.59,0.32-1.17,0.51-1.75
		c0.04-0.13,0.45-1.47,0.5-1.46c0.83,0.19,1.65,0.37,2.48,0.56c1.03,0.23,2.05,0.46,3.08,0.7l-7.38,6.24
		C100.51,17.25,100.54,17.01,100.58,16.78z M108.38,23.48c-0.18,0.56-0.36,1.12-0.58,1.66c-0.02,0.06-0.24,0.65-0.28,0.65
		c-0.02,0-0.04-0.01-0.05-0.01c-0.29-0.06-0.57-0.12-0.86-0.18c-1.14-0.24-2.28-0.49-3.42-0.73c-1.01-0.22-2.02-0.43-3.03-0.64
		c-0.03-0.55-0.03-1.1-0.05-1.65c-0.03-0.56,0.05-1.11,0.05-1.67c1.78,0.41,3.57,0.81,5.35,1.22c1.02,0.23,2.04,0.47,3.06,0.7
		C108.51,23.04,108.44,23.26,108.38,23.48z"/>
	<path d="M17.44,28.4H2.36c-0.65,0-1.21-0.22-1.68-0.67C0.24,27.28,0,26.77,0,26.19c0-0.64,0.27-1.47,0.83-2.53l10.8-20.78H5.96
		c-1.45,0-2.45,0.26-2.98,0.74C2.45,4.1,2.15,5.06,2.12,6.57h-1.8v-6.5h13.51c2.04,0,3.07,0.83,3.07,2.46
		c0,0.48-0.15,1.06-0.47,1.66L5.28,25.61h12.16V28.4z"/>
	<path d="M31.66,26.09h-2.07c-0.88,0-1.62,0.22-2.18,0.7c-1.12,0.87-1.68,1.35-1.74,1.38c-0.71,0.45-1.53,0.67-2.45,0.67
		c-1.47,0-2.71-0.48-3.72-1.44c-1-0.96-1.51-2.11-1.51-3.46c0-3.94,3.13-6.08,9.33-6.4v-1.79c0-1.73-0.12-2.98-0.41-3.75
		c-0.27-0.77-0.77-1.15-1.45-1.15c-0.68,0-1.15,0.32-1.36,1.02c-0.03,0.03-0.15,0.77-0.35,2.15c-0.21,1.37-1.03,2.11-2.54,2.11
		l-2.39-2.47c0.06-1.5,0.68-2.72,1.86-3.62c1.21-0.93,2.8-1.38,4.81-1.38c2.24,0,3.84,0.58,4.78,1.67c0.91,1.12,1.39,3.01,1.39,5.63
		V26.09L31.66,26.09z M27.32,23.63v-3.91c-3.1,0.19-4.66,1.34-4.66,3.52c0,1.73,0.59,2.62,1.77,2.62
		C25.7,25.87,26.64,25.1,27.32,23.63z"/>
	<path d="M34.17,12.23c0.15,0,0.35,0,0.56,0c0.26,0.03,0.44,0.03,0.53,0.03c1.21,0,2.01-0.16,2.45-0.48c0.74-0.67,1.5-1.34,2.3-2.05
		c0.86-0.67,1.83-0.99,2.92-0.99c1.98,0,3.54,0.87,4.69,2.66c1.15,1.79,1.74,4.26,1.74,7.43c0,3.27-0.62,5.8-1.83,7.59
		c-1.21,1.76-2.92,2.66-5.1,2.66c-1.65,0-2.98-0.67-4.01-1.98v7.62c0,0.67-0.21,1.22-0.59,1.67c-0.41,0.45-0.91,0.67-1.5,0.67
		c-0.62,0-1.12-0.22-1.54-0.7c-0.41-0.45-0.62-0.99-0.62-1.64V12.23L34.17,12.23z M38.42,20.27c0,3.9,1.06,5.83,3.16,5.83
		c2.04,0,3.04-2.46,3.04-7.36c0-4.7-0.97-7.07-2.95-7.07c-1.33,0-2.42,1.31-3.24,3.97V20.27z"/>
	<path d="M51.14,12.23c0.15,0,0.32,0,0.56,0c0.24,0.03,0.41,0.03,0.53,0.03c1.21,0,2.01-0.16,2.45-0.48
		c0.74-0.67,1.51-1.34,2.27-2.05c0.89-0.67,1.86-0.99,2.95-0.99c1.95,0,3.51,0.87,4.67,2.66c1.15,1.79,1.71,4.26,1.71,7.43
		c0,3.27-0.59,5.8-1.8,7.59c-1.24,1.76-2.89,2.66-5.07,2.66c-1.65,0-2.98-0.67-4.01-1.98v7.62c0,0.67-0.21,1.22-0.62,1.67
		c-0.38,0.45-0.88,0.67-1.5,0.67c-0.59,0-1.09-0.22-1.51-0.7c-0.41-0.45-0.62-0.99-0.62-1.64V12.23L51.14,12.23z M55.39,20.27
		c0,3.9,1.03,5.83,3.16,5.83c2.04,0,3.04-2.46,3.04-7.36c0-4.7-1-7.07-2.98-7.07c-1.33,0-2.39,1.31-3.22,3.97V20.27z"/>
	<path d="M82.21,18.92c0,6.6-2.45,9.92-7.29,9.92c-4.87,0-7.32-3.33-7.32-9.92c0-6.82,2.45-10.24,7.32-10.24
		c2.24,0,4.01,0.9,5.34,2.72C81.56,13.19,82.21,15.72,82.21,18.92L82.21,18.92z M77.96,20.56c0-2.98-0.09-4.97-0.24-5.86
		c-0.38-2.53-1.33-3.81-2.77-3.81c-1.12,0-1.92,0.64-2.39,1.95c-0.47,1.28-0.71,3.3-0.71,6.08c0,2.69,0.24,4.61,0.65,5.79
		c0.47,1.28,1.27,1.92,2.42,1.92C76.92,26.64,77.96,24.62,77.96,20.56z"/>
	<path d="M92.5,13.67c0-1.7-0.92-2.53-2.75-2.53c-1.56,0-2.33,0.64-2.33,1.98c0,0.83,0.83,1.76,2.48,2.85
		c0.83,0.51,1.8,1.18,2.92,1.95c1.5,1.44,2.27,3.17,2.27,5.12c0,1.7-0.56,3.1-1.68,4.16c-1.12,1.06-2.57,1.57-4.37,1.57
		c-1.59,0-2.89-0.29-3.89-0.9c-1-0.61-1.54-1.37-1.54-2.24c0-0.54,0.38-0.8,1.15-0.8c0.21,0,0.41,0,0.56,0.03
		c1.18,0.87,2.27,1.31,3.28,1.31c1.68,0,2.54-0.67,2.54-2.02c0-0.74-0.32-1.37-0.97-1.98c-0.27-0.29-1.12-0.9-2.57-1.89
		c-1.45-0.99-2.48-1.89-3.07-2.69c-0.71-0.93-1.06-2.02-1.06-3.27c0-1.79,0.56-3.17,1.71-4.16c1.12-0.99,2.71-1.5,4.81-1.5
		c0.94,0,2.3,0.25,4.04,0.77v4.22H92.5z"/>
	<path d="M106.37,35.96c-0.34,2.5-2.58,4.26-5.01,3.93c-2.43-0.33-4.13-2.62-3.79-5.11c0.34-2.5,2.58-4.25,5-3.93
		C105,31.18,106.7,33.47,106.37,35.96z"/>
	<g>
		<path d="M109.12,35.61c0.81,0,1.46,0.63,1.46,1.43c0,0.8-0.65,1.44-1.47,1.44c-0.82,0-1.47-0.64-1.47-1.44
			C107.64,36.23,108.29,35.61,109.12,35.61L109.12,35.61z M109.11,35.89c-0.62,0-1.1,0.52-1.1,1.15c0,0.64,0.48,1.14,1.12,1.14
			c0.62,0.01,1.09-0.5,1.09-1.13C110.22,36.41,109.74,35.89,109.11,35.89L109.11,35.89z M108.89,37.78h-0.33v-1.43
			c0.13-0.02,0.31-0.04,0.55-0.04c0.27,0,0.39,0.04,0.49,0.11c0.09,0.06,0.15,0.17,0.15,0.31c0,0.17-0.13,0.29-0.3,0.34v0.02
			c0.14,0.05,0.21,0.16,0.25,0.35c0.04,0.22,0.08,0.3,0.1,0.35h-0.35c-0.04-0.05-0.07-0.17-0.11-0.35c-0.03-0.15-0.11-0.22-0.3-0.22
			h-0.16V37.78z M108.9,36.98h0.16c0.18,0,0.33-0.06,0.33-0.21c0-0.13-0.1-0.22-0.31-0.22c-0.09,0-0.15,0.01-0.18,0.02V36.98z"/>
	</g>
</g>
</svg>
